# xmcd
# 
# Track frame offsets:
#     150
#     12902
#     22370
#     35050
#     46062
#     65537
#     75620
#     86177
#     97800
#     113637
#     126657
#     149957
#     166462
#     191015
# 
# Disc length: 2997
# 
# Revision: 1
# Processed by: cddbd v1.5.2PL0 Copyright (c) Steve Scherf et al.
# Submitted via: fre:ac v1.0.31
# 
DISCID=cb0bb30e
DTITLE=Roots of Rhythm - Everlasting Joy
DYEAR=2000
DGENRE=R&B
TTITLE0=The Swan Silvertones/Mary Don't You Weep
TTITLE1=Highway C.Q.s/ Yes I Love Him
TTITLE2=Dorothy Love Coates/Get Away Jordan
TTITLE3=The Caravans/It's Jesus In Me
TTITLE4=Aretha Franklin/How I Got Over
TTITLE5=The Dixie Hummingbirds/Christian's Automobile
TTITLE6=The Pilgrim Travelers/Straight Street
TTITLE7=The Sensational Nightingales/Burying Ground
TTITLE8=The Golden Gate Quartet/Swing Down, Sweet Chariot
TTITLE9=The Five Blind Boys of Mississippi/Our Father
TTITLE10=Sister Rosetta Tharpe/Precious Memories
TTITLE11=Clara Ward/Beams of Heaven
TTITLE12=Mahalia Jackson/I Will Move On Up a Little Higher
TTITLE13=Thomas A. Dorsey and Marion Williams/Take My Hand Precious Lord
EXTD=
EXTT0=
EXTT1=
EXTT2=
EXTT3=
EXTT4=
EXTT5=
EXTT6=
EXTT7=
EXTT8=
EXTT9=
EXTT10=
EXTT11=
EXTT12=
EXTT13=
PLAYORDER=
